<?xml version="1.0" encoding="UTF-8"?> <svg xmlns="http://www.w3.org/2000/svg" xmlns:xlink="http://www.w3.org/1999/xlink" xmlns:xodm="http://www.corel.com/coreldraw/odm/2003" xml:space="preserve" width="210mm" height="80mm" version="1.1" style="shape-rendering:geometricPrecision; text-rendering:geometricPrecision; image-rendering:optimizeQuality; fill-rule:evenodd; clip-rule:evenodd" viewBox="0 0 21000 8000"> <defs> <style type="text/css"> .fil0 {fill:#052E66;fill-rule:nonzero} </style> </defs> <g id="Capa_x0020_1"> <metadata id="CorelCorpID_0Corel-Layer"></metadata> <g> <path class="fil0" d="M16048.32 4610.29l0 -2781.95 934.45 0 0 2696.1c0,503 252.71,843.93 803.33,843.93 514.89,0 791.43,-288.43 791.43,-843.93l0.01 -2696.1 922.46 0 0 2727.08c0,1044.09 -731.84,1618.61 -1732.95,1618.61 -1034.52,0.05 -1718.73,-514.86 -1718.73,-1563.74zm-8185.93 0l0 -2781.95 934.45 0 0 2696.1c0,503 252.71,843.93 803.33,843.93 514.89,0 791.43,-288.43 791.43,-843.93l0 -2696.1 922.5 0 0 2727.08c0,1044.09 -731.89,1618.61 -1733,1618.61 -1036.97,0.05 -1718.71,-514.86 -1718.71,-1563.74zm-3883.21 -3673.48c-1368.34,2.45 -2476.79,1110.87 -2479.18,2479.21l0 1168.04c0,1368.24 1110.84,2479.13 2479.16,2479.13 1368.32,0 2479.16,-1110.79 2479.16,-2479.13l0.01 -1168.04c-2.36,-1368.34 -1110.87,-2476.76 -2479.15,-2479.21l0 0zm0 5644.87c-1103.72,0 -1997.67,-893.95 -2000.03,-1997.62l0 -1168.04c0,-1103.66 893.94,-2000.03 2000.03,-2000.03 1106.08,0 2000.03,893.98 2000.03,2000.03l0 1168.04c-2.42,1103.67 -896.32,1997.62 -2000.03,1997.62zm-1550.8 -1176.51l2922.52 0c85.81,-133.44 150.14,-278.9 190.7,-431.5l-3303.94 0c42.89,152.51 107.27,297.96 190.72,431.5zm288.43 343.27c305.12,276.51 703.22,431.46 1115.62,431.46l112.01 0c412.38,0 810.5,-154.93 1115.63,-431.46l-2343.26 0zm1668.66 -3096.59l-359.97 0 0 357.59 -271.73 0 0 -357.59 -359.96 0 0 -286.1 359.96 0 0 -357.51 271.73 0 0 357.51 359.97 0 0 286.1zm-495.83 974.97l-1680.57 967.8 0 40.52 3361.14 0 0 -40.52 -1680.57 -967.8zm8089.5 1035.85l0 -1330.15c0,-1032.18 810.5,-1575.63 1749.74,-1575.63 822.41,0 1685.33,438.62 1685.33,1408.84l0 169.21 -881.99 0 0 -85.81c0,-498.2 -436.28,-700.83 -796.16,-700.83 -390.95,0 -827.24,209.82 -827.24,755.66l0 1330.15c0,474.44 383.74,748.54 851.01,748.54 359.96,0 772.39,-204.98 772.39,-707.9l0 -78.69 881.99 0 0 166.9c0,970.27 -834.36,1408.84 -1661.45,1408.84 -934.47,2.28 -1773.62,-495.93 -1773.62,-1509.13z"></path> </g> </g> </svg> 